<svg width="641" height="359" viewBox="0 0 641 359" fill="none" xmlns="http://www.w3.org/2000/svg">
<path d="M140.095 199.345H110.197V137.195L140.095 112.356V199.345Z" fill="#B6D4FF"/>
<rect x="290.436" y="183.644" width="33.276" height="108.318" fill="#CCE3FF"/>
<rect x="271.377" y="114.361" width="33.276" height="108.318" fill="#CCE3FF"/>
<rect x="121.805" y="181.532" width="80.7406" height="112.03" fill="#B6D4FF"/>
<rect x="63.543" y="179.758" width="80.7406" height="112.03" fill="#B6D4FF"/>
<rect x="11.2051" y="255.164" width="80.7406" height="38.1523" fill="#B6D4FF"/>
<rect x="196.109" y="230.155" width="80.7406" height="62.6326" fill="#B6D4FF"/>
<path d="M330.58 53.9355V79.1575" stroke="#CCE3FF" stroke-width="8"/>
<rect x="454.125" y="151.683" width="44.824" height="141.63" fill="#B6D4FF"/>
<rect x="477.846" y="124.382" width="38.6069" height="99.9616" fill="#B6D4FF"/>
<rect x="488.082" y="119.794" width="17.3292" height="7.61839" fill="#B6D4FF"/>
<path d="M388.888 112.129V294.686H318.551V60.5918L346.18 80.8353V110.599H370.17V98.4176L388.888 112.129Z" fill="#B6D4FF"/>
<path d="M423.83 117.48V142.372" stroke="#CCE3FF" stroke-width="8"/>
<rect x="338.762" y="132.873" width="60.4908" height="160.44" fill="#DCEEFF"/>
<rect x="399.252" y="132.873" width="38.3446" height="160.44" fill="#CCE3FF"/>
<rect x="338.762" y="146.193" width="14.3801" height="7.46581" fill="#B6D4FF"/>
<rect x="353.141" y="153.585" width="14.3801" height="7.46581" fill="#B6D4FF"/>
<rect x="367.521" y="146.193" width="14.3801" height="7.46581" fill="#B6D4FF"/>
<rect x="338.762" y="153.585" width="14.3801" height="7.46581" fill="#ECF6FF"/>
<rect x="353.141" y="203.989" width="14.3801" height="7.46581" fill="#ECF6FF"/>
<rect x="404.18" y="153.585" width="11.1404" height="7.46581" fill="#ECF6FF"/>
<rect x="381.902" y="241.656" width="14.3801" height="7.46581" fill="#ECF6FF"/>
<rect x="381.902" y="161.055" width="14.3801" height="7.46581" fill="#B6D4FF"/>
<rect x="353.141" y="196.521" width="14.3801" height="7.46581" fill="#B6D4FF"/>
<rect x="381.902" y="203.989" width="14.3801" height="7.46581" fill="#B6D4FF"/>
<rect x="404.182" y="146.193" width="11.1369" height="7.46581" fill="#B6D4FF"/>
<rect x="426.459" y="153.659" width="11.1369" height="7.46581" fill="#B6D4FF"/>
<rect x="404.182" y="182.486" width="11.1369" height="7.46581" fill="#B6D4FF"/>
<rect x="367.521" y="241.656" width="14.3801" height="7.46581" fill="#B6D4FF"/>
<rect x="338.762" y="260.81" width="14.3801" height="7.46581" fill="#B6D4FF"/>
<rect x="353.141" y="268.279" width="14.3801" height="7.46581" fill="#B6D4FF"/>
<rect x="338.762" y="161.055" width="14.3801" height="7.46581" fill="#B6D4FF"/>
<rect x="218.793" y="155.853" width="5.87327" height="10.489" fill="#ECF6FF"/>
<rect x="218.793" y="134.871" width="5.87327" height="10.489" fill="#ECF6FF"/>
<rect x="213.016" y="23.4727" width="50.5413" height="269.841" fill="#DCEEFF"/>
<rect x="263.557" y="23.4727" width="32.0389" height="269.841" fill="#B6D4FF"/>
<rect x="213.016" y="4.91406" width="50.5413" height="12.3377" fill="#DCEEFF"/>
<rect x="222.178" width="20.3916" height="12.3377" fill="#DCEEFF"/>
<rect x="268.492" width="20.3916" height="12.3377" fill="#DCEEFF"/>
<rect x="263.557" y="4.91406" width="32.0389" height="12.3377" fill="#B6D4FF"/>
<rect x="208.352" y="17.252" width="56.2515" height="6.22387" fill="#DCEEFF"/>
<rect x="264.604" y="17.252" width="35.6579" height="6.22387" fill="#CCE3FF"/>
<rect x="218.793" y="29.5869" width="5.87327" height="263.727" fill="#CCE3FF"/>
<rect x="251.609" y="29.5869" width="5.87327" height="263.727" fill="#CCE3FF"/>
<rect x="240.67" y="29.5869" width="5.87327" height="263.727" fill="#CCE3FF"/>
<rect x="229.732" y="29.5869" width="5.87327" height="263.727" fill="#CCE3FF"/>
<rect x="229.732" y="145.359" width="5.87327" height="10.489" fill="#ECF6FF"/>
<rect x="240.67" y="242" width="5.87327" height="10.489" fill="#ECF6FF"/>
<rect x="240.67" y="231.508" width="5.87327" height="10.489" fill="#ECF6FF"/>
<rect opacity="0.51" x="251.609" y="200.012" width="5.87327" height="10.489" fill="#B6D4FF"/>
<rect x="218.793" y="210.657" width="5.87327" height="10.489" fill="#B6D4FF"/>
<rect x="251.609" y="113.321" width="5.87327" height="10.489" fill="#B6D4FF"/>
<rect x="218.793" y="96.8359" width="5.87327" height="10.489" fill="#B6D4FF"/>
<rect opacity="0.51" x="240.67" y="210.529" width="5.87327" height="10.489" fill="#B6D4FF"/>
<rect x="218.793" y="254.054" width="5.87327" height="10.489" fill="#ECF6FF"/>
<rect x="240.67" y="134.871" width="5.87327" height="10.489" fill="#ECF6FF"/>
<rect x="218.793" y="166.341" width="5.87327" height="10.489" fill="#ECF6FF"/>
<rect x="251.609" y="73.9092" width="5.87327" height="10.489" fill="#ECF6FF"/>
<rect x="218.793" y="57.6084" width="5.87327" height="10.489" fill="#ECF6FF"/>
<rect x="218.793" y="68.0967" width="5.87327" height="10.489" fill="#ECF6FF"/>
<rect x="240.67" y="124.382" width="5.87327" height="10.489" fill="#ECF6FF"/>
<rect x="582.508" y="240.336" width="41.563" height="51.6255" fill="#B6D4FF"/>
<rect x="599.457" y="246.205" width="5.7882" height="48.4816" fill="#DCEEFF"/>
<rect x="610.363" y="246.205" width="5.7882" height="48.4816" fill="#DCEEFF"/>
<path d="M577.174 161.451V187.589" stroke="#CCE3FF" stroke-width="8"/>
<rect x="526.395" y="176.901" width="42.6264" height="119.769" fill="#CCE3FF"/>
<rect x="531.945" y="184.48" width="6.67079" height="108.836" fill="#B6D4FF"/>
<rect x="544.369" y="184.48" width="6.67079" height="108.836" fill="#B6D4FF"/>
<rect x="556.795" y="184.48" width="6.67079" height="108.836" fill="#B6D4FF"/>
<rect x="569.018" y="176.901" width="27.0199" height="119.769" fill="#B6D4FF"/>
<rect x="574.273" y="184.48" width="5.7882" height="108.836" fill="#DCEEFF"/>
<rect x="585.35" y="184.48" width="5.7882" height="108.836" fill="#DCEEFF"/>
<rect x="585.35" y="233.502" width="5.7882" height="10.081" fill="#CCE3FF"/>
<rect x="585.35" y="203.989" width="5.7882" height="10.081" fill="#CCE3FF"/>
<rect x="574.273" y="203.989" width="5.7882" height="10.081" fill="#CCE3FF"/>
<rect x="574.277" y="214.07" width="5.7882" height="10.081" fill="#CCE3FF"/>
<rect x="599.457" y="261.988" width="5.7882" height="10.081" fill="#CCE3FF"/>
<rect x="610.363" y="272.069" width="5.7882" height="10.081" fill="#CCE3FF"/>
<rect x="574.277" y="243.583" width="5.7882" height="10.081" fill="#CCE3FF"/>
<rect x="585.35" y="243.583" width="5.7882" height="10.081" fill="#CCE3FF"/>
<path d="M164.697 137.131V157.843" stroke="#CCE3FF" stroke-width="8"/>
<rect x="100.789" y="151.055" width="17.8857" height="15.2865" fill="#CCE3FF"/>
<rect x="83.5566" y="157.843" width="63.9999" height="135.47" fill="#DCEEFF"/>
<rect x="90.0996" y="164.535" width="7.41514" height="128.778" fill="#B6D4FF"/>
<rect x="103.916" y="164.535" width="7.41514" height="128.778" fill="#B6D4FF"/>
<rect x="117.729" y="164.535" width="7.41514" height="128.778" fill="#B6D4FF"/>
<rect x="131.541" y="164.535" width="7.41514" height="128.778" fill="#B6D4FF"/>
<rect x="154.318" y="151.055" width="17.8857" height="15.2865" fill="#CCE3FF"/>
<rect x="147.557" y="157.843" width="40.5706" height="135.47" fill="#CCE3FF"/>
<rect x="161.217" y="202.531" width="7.41514" height="90.7855" fill="#DCEEFF"/>
<rect x="175.029" y="202.531" width="7.41514" height="90.7855" fill="#DCEEFF"/>
<rect x="34.4785" y="218.034" width="55.4009" height="76.2371" fill="#DCEEFF"/>
<rect x="89.8789" y="218.034" width="35.1191" height="76.2371" fill="#CCE3FF"/>
<rect opacity="0.51" x="34.4785" y="277.842" width="79.617" height="6.57516" fill="#B6D4FF"/>
<rect opacity="0.51" x="34.4785" y="266.502" width="79.617" height="6.57516" fill="#B6D4FF"/>
<rect opacity="0.51" x="34.4785" y="255.164" width="79.617" height="6.57516" fill="#B6D4FF"/>
<rect opacity="0.51" x="34.4785" y="243.824" width="79.617" height="6.57516" fill="#B6D4FF"/>
<rect opacity="0.51" x="34.4785" y="232.486" width="79.617" height="6.57516" fill="#B6D4FF"/>
<rect opacity="0.51" x="34.4785" y="221.146" width="79.617" height="6.57516" fill="#B6D4FF"/>
<rect x="68.6016" y="277.842" width="11.7253" height="6.57516" fill="#ECF6FF"/>
<rect x="68.6016" y="266.502" width="11.7253" height="6.57516" fill="#ECF6FF"/>
<rect x="56.877" y="277.842" width="11.7253" height="6.57516" fill="#ECF6FF"/>
<rect x="68.4238" y="243.824" width="11.7253" height="6.57516" fill="#ECF6FF"/>
<rect x="39.8477" y="232.486" width="11.7253" height="6.57516" fill="#ECF6FF"/>
<rect x="51.5742" y="232.486" width="11.7253" height="6.57516" fill="#ECF6FF"/>
<rect x="487.812" y="212.385" width="57.2724" height="80.9316" fill="#DCEEFF"/>
<rect x="423.83" y="212.385" width="63.9821" height="80.9316" fill="#ECF6FF"/>
<rect x="492.793" y="204.934" width="63.4186" height="16.2126" fill="#CCE3FF"/>
<rect x="423.83" y="221.146" width="121.258" height="4.01677" fill="#B6D4FF"/>
<rect x="423.83" y="228.402" width="121.258" height="4.01677" fill="#CCE3FF"/>
<rect x="423.83" y="266.513" width="121.258" height="4.01677" fill="#B6D4FF"/>
<rect x="423.83" y="273.766" width="121.258" height="4.01677" fill="#CCE3FF"/>
<rect x="412.055" y="204.934" width="80.7406" height="16.2126" fill="#DCEEFF"/>
<rect x="492.793" y="239.14" width="63.4186" height="27.3723" fill="#CCE3FF"/>
<rect x="412.055" y="239.14" width="80.7406" height="27.3723" fill="#DCEEFF"/>
<path d="M630.78 294.271H10H630.78Z" fill="#ECF6FF"/>
<path d="M630.78 294.271H10" stroke="#DCEEFF" stroke-width="20" stroke-linecap="round"/>
<path d="M336.092 358.784C437.693 358.784 520.057 358.209 520.057 357.501C520.057 356.793 437.693 356.219 336.092 356.219C234.491 356.219 152.127 356.793 152.127 357.501C152.127 358.209 234.491 358.784 336.092 358.784Z" fill="#AFB3C6"/>
<path d="M511.145 357.498H166.357C166.357 357.31 166.357 357.119 166.357 356.928C166.357 346.785 166.357 334.255 178.666 326.628C197.527 314.938 217.438 333.819 217.123 310.495C216.793 286.254 205.927 159.636 205.927 159.636L209.152 150.028C209.152 150.028 234.364 250.991 240.839 285.425C247.765 322.267 255.335 284.468 279.824 283.352C302.924 282.29 313.684 295.397 318.1 311.477C331.461 307.551 343.784 305.479 353.108 314.467C365.814 282.371 386.748 310.06 384.321 279.99C381.464 244.632 370.311 135.656 370.311 135.656L375.053 129.634C375.053 129.634 398.965 230.058 408.789 274.577C415.749 306.106 433.64 272.353 464.406 288.237C488.505 300.69 482.481 329.685 482.481 329.685C482.481 329.685 508.855 327.064 511.145 357.498Z" fill="#B5B8BC"/>
<path d="M296.272 340.852C296.282 346.778 294.529 352.574 291.236 357.502H241.225C238.254 353.06 236.532 347.902 236.239 342.566C236.207 342 236.189 341.429 236.189 340.855C236.072 330.05 241.772 320.014 251.115 314.577C260.458 309.14 272.003 309.14 281.346 314.577C290.689 320.014 296.389 330.05 296.272 340.855V340.852Z" fill="#D7DADD"/>
<path d="M392.944 356.956C392.944 357.137 392.944 357.31 392.944 357.498H347.098C347.098 357.321 347.098 357.144 347.098 356.956C347.098 344.299 357.362 334.039 370.024 334.039C382.686 334.039 392.951 344.299 392.951 356.956H392.944Z" fill="#D7DADD"/>
<path d="M327.41 356.793C327.41 357.026 327.41 357.264 327.41 357.501H267.934C267.934 357.267 267.934 357.03 267.934 356.793C267.934 340.374 281.249 327.063 297.675 327.063C314.101 327.063 327.417 340.374 327.417 356.793H327.41Z" fill="#D7DADD"/>
<path d="M243.114 357.119C243.114 357.242 243.114 357.374 243.114 357.498H210.902C210.902 357.374 210.902 357.242 210.902 357.119C210.895 352.846 212.589 348.746 215.612 345.725C218.634 342.704 222.736 341.01 227.01 341.018C227.802 341.017 228.594 341.074 229.378 341.188C237.271 342.365 243.114 349.141 243.114 357.119Z" fill="#D7DADD"/>
<path d="M197.867 357.314C197.867 357.374 197.867 357.438 197.867 357.498H182.256C182.256 357.438 182.256 357.374 182.256 357.314C182.256 353.01 185.747 349.521 190.053 349.521C190.437 349.52 190.821 349.549 191.201 349.606C195.029 350.166 197.866 353.447 197.867 357.314Z" fill="#BEC1C6"/>
<path d="M490.107 357.118C490.107 357.242 490.107 357.374 490.107 357.498H457.902C457.902 357.374 457.902 357.242 457.902 357.118C457.902 348.226 465.114 341.018 474.01 341.018C482.906 341.018 490.118 348.226 490.118 357.118H490.107Z" fill="#D7DADD"/>
<path d="M451.395 341.89C451.398 347.309 450.134 352.653 447.706 357.498H385.125C378.676 344.579 380.837 329.026 390.562 318.351C400.288 307.676 415.578 304.075 429.048 309.287C442.519 314.499 451.398 327.451 451.399 341.89H451.395Z" fill="#D7DADD"/>
<path d="M205.48 318.087C208.131 318.087 210.279 315.94 210.279 313.291C210.279 310.642 208.131 308.494 205.48 308.494C202.83 308.494 200.682 310.642 200.682 313.291C200.682 315.94 202.83 318.087 205.48 318.087Z" fill="#D7DADD"/>
<path d="M156.048 344.245C157.573 344.245 158.809 343.009 158.809 341.485C158.809 339.961 157.573 338.726 156.048 338.726C154.523 338.726 153.287 339.961 153.287 341.485C153.287 343.009 154.523 344.245 156.048 344.245Z" fill="#D7DADD"/>
<path d="M366.984 292.071C370.777 292.071 373.852 288.997 373.852 285.205C373.852 281.414 370.777 278.34 366.984 278.34C363.19 278.34 360.115 281.414 360.115 285.205C360.115 288.997 363.19 292.071 366.984 292.071Z" fill="#D7DADD"/>
<path d="M420.523 281.825C422.089 281.825 423.358 280.556 423.358 278.991C423.358 277.426 422.089 276.157 420.523 276.157C418.957 276.157 417.688 277.426 417.688 278.991C417.688 280.556 418.957 281.825 420.523 281.825Z" fill="#D7DADD"/>
<path d="M515.177 336.979C518.79 336.979 521.719 334.052 521.719 330.44C521.719 326.828 518.79 323.9 515.177 323.9C511.564 323.9 508.635 326.828 508.635 330.44C508.635 334.052 511.564 336.979 515.177 336.979Z" fill="#D7DADD"/>
<path d="M219.047 161.956L198.399 164.723L189.634 99.3128C187.699 84.8875 196.832 74.6318 196.832 74.6318C196.832 74.6318 208.347 82.1243 210.279 96.5496L219.047 161.956Z" fill="#6CA1FF"/>
<rect x="190.406" y="105.08" width="20.832" height="46.2941" transform="rotate(-7.63 190.406 105.08)" fill="#405FD3"/>
<rect x="199.5" y="164.839" width="16.7241" height="6.33873" transform="rotate(-7.48089 199.5 164.839)" fill="#405FD3"/>
<path d="M188.811 168.896L198.394 164.723L196.782 152.682L188.34 165.375L188.811 168.896Z" fill="#405FD3"/>
<path d="M229.387 163.466L219.042 161.96L217.43 149.919L228.916 159.944L229.387 163.466Z" fill="#405FD3"/>
<path d="M367.571 124.448L208.648 145.728L203.754 109.208L277.031 52.417L362.677 87.9275L367.571 124.448Z" fill="#6CA1FF"/>
<path d="M327.052 82.9008L333.233 129.046L242.987 141.13L236.803 94.9844C235.948 88.5967 238.558 82.2369 243.653 78.2884L277.035 52.4277L316.048 68.6066C322 71.0731 326.192 76.5175 327.052 82.9008Z" fill="#405FD3"/>
<path d="M384.062 137.93L363.414 140.697L354.649 75.2874C352.725 60.8798 361.847 50.6064 361.847 50.6064C361.847 50.6064 373.362 58.0989 375.294 72.5242L384.062 137.93Z" fill="#6CA1FF"/>
<rect x="355.422" y="81.0508" width="20.832" height="46.2941" transform="rotate(-7.63 355.422 81.0508)" fill="#405FD3"/>
<rect x="365.438" y="140.424" width="16.7492" height="6.34826" transform="rotate(-7.63 365.438 140.424)" fill="#405FD3"/>
<path d="M353.827 144.871L363.41 140.697L361.797 128.656L353.355 141.349L353.827 144.871Z" fill="#405FD3"/>
<path d="M394.403 139.436L384.058 137.93L382.445 125.893L393.932 135.914L394.403 139.436Z" fill="#405FD3"/>
<path d="M259.236 228.17L265.186 234.6C265.186 234.6 251.446 247.218 250.27 256.783L279.799 237.497L265.303 217.507L259.236 228.17Z" fill="#0D0B6D"/>
<path d="M266.537 219.405L273.224 228.694L265.165 234.599L259.232 228.17L266.537 219.405Z" fill="#CF5B6C"/>
<path d="M321.088 257.492L327.389 263.56C327.389 263.56 321.524 283.682 320.918 293.318L341.474 264.173L326.5 246.51L321.088 257.492Z" fill="#0D0B6D"/>
<path d="M327.86 248.312L334.374 255.777L327.389 263.563L321.084 257.495L327.86 248.312Z" fill="#CF5B6C"/>
<path d="M226.637 152.278C226.637 152.278 260.224 151.615 262.195 146.822C266.072 137.395 261.458 106.062 261.458 106.062L241.71 109.477L245.106 137.92L222.268 142.879" fill="#E897A3"/>
<path d="M261.855 139.089L256.978 118.302L240.838 121.345C240.838 121.345 240.505 95.8843 244.631 89.575C248.192 84.1372 254.217 77.0627 269.375 73.9665C291.915 69.3612 297.373 71.7206 304.929 77.4843C311.45 82.4616 320.42 97.9638 320.42 97.9638L303.526 107.174L309.196 126.683L261.855 139.089Z" fill="#FF623F"/>
<path d="M271.555 27.7432L272.568 34.6228L275.389 34.9664L278.345 28.8839" stroke="#0D0B6D" stroke-width="9"/>
<path d="M238.744 45.3428C238.744 45.3428 232.581 59.6972 245.917 59.6972L238.744 45.3428Z" fill="#0D0B6D"/>
<path d="M265.188 80.3641L262.99 71.9187C262.99 71.9187 251.121 75.9501 248.002 75.2203C248.002 75.2203 242.63 62.8887 242.293 53.2565L250.632 40.7194L268.441 37.5488L274.466 52.8633C274.693 49.9301 282.16 44.4285 285.701 49.969C290.269 57.1179 277.167 64.6494 277.167 64.6494L280.537 75.6773" fill="#E897A3"/>
<path d="M265.187 74.8764L261.289 76.2934C261.289 76.2934 259.163 87.9838 270.904 85.5749C280.388 83.6088 281.983 71.9219 281.983 71.9219L276.745 72.5135" fill="#E897A3"/>
<path d="M280.425 47.7369C280.425 47.7369 288.035 42.122 275.538 34.4134C263.042 26.7048 255.582 34.2611 255.582 34.2611C255.582 34.2611 250.439 24.473 243.567 26.2549C233.778 28.7949 236.125 44.3219 236.125 44.3219C236.125 44.3219 229.086 37.3466 226.577 39.2383C224.068 41.1301 230.965 68.4927 266.561 45.2323C266.561 45.2323 265.143 53.6282 274.454 52.8843C274.461 52.8807 275.198 49.2638 280.425 47.7369Z" fill="#0D0B6D"/>
<path d="M288.277 71.5076C288.277 71.5076 289.389 70.8275 295.769 72.4712C295.769 72.4712 290.878 90.184 305.27 123.034L302.882 125.287C302.882 125.287 284.942 102.774 288.277 71.5076Z" fill="#242530"/>
<path d="M249.965 83.1206C249.965 83.1206 254.055 78.9227 256.72 78.3311C256.72 78.3311 250.267 92.6713 259.315 128.253L261.328 136.85C261.328 136.85 245.886 113.746 249.965 83.1206Z" fill="#242530"/>
<path d="M255.287 69.736C255.699 71.0397 258.831 71.4683 260.671 70.0903C264.722 67.0543 263.478 63.037 260.986 63.1044C257.878 63.1858 258.612 66.0305 257.169 67.0012C255.514 68.0887 254.986 68.7724 255.287 69.736Z" fill="white"/>
<path d="M263.01 71.9784L272.277 67.5537L264.066 75.9425L263.01 71.9784Z" fill="#CF5B6C"/>
<path d="M251.705 59.998L250.574 68.0892L254.179 67.2213L251.705 59.998Z" fill="#405FD3"/>
<path d="M261.855 139.089C261.855 139.089 218.759 162.019 214.308 174.84C209.509 188.635 257.836 234.029 257.836 234.029L272.763 223.238L245.439 180.398L296.473 152.267L285.504 132.893L261.855 139.089Z" fill="#2F2F3D"/>
<path d="M281.983 133.818C281.983 133.818 278.836 196.875 281.983 209.813C283.67 216.749 322.091 265.041 322.091 265.041L334.453 250.07L308.071 200.22L311.324 125.663L281.983 133.818Z" fill="#2F2F3D"/>
<path d="M291.279 132.021C291.279 132.021 322.619 137.077 326.886 133.049C333.715 126.594 318.072 99.2422 318.072 99.2422L302.832 107.592L308.825 120.15L290.318 120.306" fill="#E897A3"/>
<path d="M212.525 134.657L228.591 156.022" stroke="#23262B" stroke-width="20"/>
<path d="M286.452 136.949L280.781 110.221" stroke="#23262B" stroke-width="18"/>
<path d="M225.016 156.059C227.01 154.24 226.1 149.997 222.984 146.581C219.868 143.166 215.725 141.873 213.731 143.692C211.737 145.511 212.647 149.755 215.764 153.17C218.88 156.585 223.022 157.879 225.016 156.059Z" fill="#E897A3"/>
<path d="M222.034 143.506C221.871 146.199 218.993 146.369 218.993 146.369L218.564 139.609L227.492 141.735L226.992 146.376L222.034 143.506Z" fill="#E897A3"/>
<path d="M292.958 121.638C292.958 121.638 284.325 115.79 282.199 115.953C279.661 116.147 275.957 118.011 274.625 118.999C273.292 119.988 274.352 122.57 275.181 123.133C274.272 124.542 274.453 126.391 275.617 127.597C275.593 129.015 276.352 130.332 277.591 131.023C277.914 132.394 279.124 133.373 280.533 133.403C283.014 133.485 288.741 132.436 293.235 131.589" fill="#E897A3"/>
<path d="M212.525 134.657L254.009 79.9463" stroke="#23262B" stroke-width="5"/>
<path d="M291.704 71.748L280.781 110.22" stroke="#23262B" stroke-width="5"/>
<path d="M280.961 160.706L281.329 153.539L262.518 170.809L280.961 160.706Z" fill="#1D2126"/>
<path d="M302.824 107.592L318.067 99.2422L305.27 112.711L302.824 107.592Z" fill="#CF5B6C"/>
<path d="M243.076 120.922L243.75 126.562L254.499 122.541L253.294 118.995L243.076 120.922Z" fill="#CF5B6C"/>
</svg>
