<svg width="24" height="25" viewBox="0 0 24 25" fill="none" xmlns="http://www.w3.org/2000/svg">
<path d="M12.2754 0.323242C8.61617 0.323242 5.35372 1.92815 3.1434 4.47253C2.46985 5.24866 1.89269 6.11073 1.43359 7.04324L5.4985 10.1481C5.96959 8.7186 6.87927 7.49189 8.06882 6.62402C9.24676 5.76582 10.6991 5.25873 12.275 5.25873C13.9775 5.25873 15.515 5.86221 16.7231 6.84931L20.2376 3.33989C18.0966 1.47486 15.3509 0.323242 12.2754 0.323242Z" fill="#FF7976"/>
<path d="M1.43359 7.04286L5.4985 10.1478C5.96959 8.71821 6.87927 7.4915 8.06882 6.62363C9.24676 5.76544 10.6991 5.25834 12.275 5.25834C13.9775 5.25834 15.515 5.86182 16.7231 6.84892L20.2376 3.3395C18.0958 1.47524 15.3505 0.323242 12.275 0.323242" fill="#E3443A"/>
<path d="M5.13581 12.3872C5.13581 12.2761 5.14394 12.1666 5.14897 12.0566C5.18071 11.3924 5.29878 10.7521 5.49775 10.1479L1.43284 7.04297C0.685359 8.55923 0.251811 10.257 0.203037 12.0566C0.19994 12.167 0.193359 12.2765 0.193359 12.3872C0.193359 12.4983 0.19994 12.6083 0.20265 12.7186C0.251424 14.5159 0.684972 16.2129 1.43052 17.7276L5.49426 14.6169C5.29723 14.0157 5.17994 13.3782 5.14897 12.7182C5.14394 12.6083 5.13581 12.4987 5.13581 12.3872Z" fill="#F4D72C"/>
<path d="M1.43164 17.7276L5.49538 14.6169C5.29835 14.0157 5.18106 13.3782 5.15009 12.7182C5.14506 12.6079 5.13693 12.4983 5.13693 12.3868C5.13693 12.2757 5.14506 12.1662 5.15009 12.0563C5.18183 11.392 5.2999 10.7517 5.49887 10.1475L1.43358 7.04297" fill="#F7B92B"/>
<path d="M16.2877 18.4611C15.1988 19.1471 13.8273 19.516 12.2754 19.516C11.3673 19.516 10.5021 19.3433 9.70469 19.0364C9.11747 18.8103 8.56934 18.508 8.06882 18.1441C6.87966 17.2782 5.96959 16.0553 5.4985 14.627L1.43359 17.7315C1.89192 18.6624 2.46792 19.5233 3.1403 20.2983C5.35063 22.8454 8.6154 24.4515 12.2754 24.4515C13.3825 24.4515 14.4706 24.3036 15.5096 24.0156C17.2368 23.5364 18.8286 22.6689 20.1466 21.4449L16.2877 18.4611Z" fill="#59C96E"/>
<path d="M1.43359 17.7314C1.89192 18.6624 2.46792 19.5233 3.1403 20.2983C5.35063 22.8454 8.6154 24.4514 12.2754 24.4514C13.3825 24.4514 14.4706 24.3036 15.5096 24.0156C17.2368 23.5363 18.8286 22.6689 20.1466 21.4449L16.2873 18.4615C15.1984 19.1474 13.8269 19.5163 12.275 19.5163C11.3669 19.5163 10.5017 19.3437 9.7043 19.0367C9.11708 18.8107 8.56895 18.5083 8.06843 18.1445" fill="#40A557"/>
<path d="M23.5316 10.0645H22.8074H12.3867V12.0565V12.7184V14.7096H18.7541C18.4301 16.258 17.5483 17.6655 16.2863 18.461L20.1457 21.4443C21.204 20.4619 22.0831 19.229 22.7156 17.8029C23.4093 16.2406 23.8061 14.3694 23.8061 12.3131C23.8061 11.6008 23.6965 10.8386 23.5316 10.0645Z" fill="#0FAEF4"/>
<path d="M20.1465 21.4443C21.2048 20.4619 22.0916 19.215 22.7242 17.789C23.4178 16.2266 23.8107 14.3624 23.8107 12.3065C23.8107 11.5939 23.6973 10.8386 23.5324 10.0645H22.8391" fill="#4087ED"/>
<path d="M12.3867 12V12.7185V14.7097H18.5803" fill="#4087ED"/>
</svg>
